<svg width="122.87" height="122.88" xmlns="http://www.w3.org/2000/svg">

 <g>
  <title>background</title>
  <rect fill="none" id="canvas_background" height="602" width="802" y="-1" x="-1"/>
 </g>
 <g>
  <title>Layer 1</title>
  <g id="svg_1">
   <path fill="#007bff" stroke-width="0" id="svg_2" d="m1.61,97.18l5.38,-5.38c0.14,-0.14 0.29,-0.27 0.44,-0.4l-3.86,-3.86l0,0c-0.06,-0.06 -0.11,-0.12 -0.16,-0.18c-0.96,-1.05 -1.44,-2.38 -1.44,-3.7c0,-1.4 0.54,-2.8 1.61,-3.87l0,0l0,0l0,0l5.38,-5.38l0,0c0.14,-0.14 0.29,-0.27 0.44,-0.4l-3.86,-3.86l0,0c-1.07,-1.07 -1.6,-2.48 -1.6,-3.88c0,-1.4 0.54,-2.8 1.6,-3.87l0,0l0,0l0,0l5.38,-5.38c1.07,-1.07 2.48,-1.6 3.88,-1.6c1.41,0 2.81,0.53 3.88,1.6l47.21,47.21c1.07,1.07 1.6,2.48 1.6,3.88c0,1.41 -0.53,2.81 -1.6,3.88l-5.38,5.38l0,0c-0.06,0.06 -0.12,0.11 -0.18,0.16c-1.05,0.96 -2.38,1.44 -3.7,1.44c-1.4,0 -2.8,-0.54 -3.87,-1.6l0,0l0,0l0,0l-3.27,-3.27c-0.12,0.15 -0.25,0.3 -0.39,0.44l0,0l0,0l-5.38,5.38l0,0c-0.06,0.06 -0.12,0.11 -0.18,0.16c-1.04,0.95 -2.37,1.43 -3.7,1.43c-1.41,0 -2.81,-0.53 -3.87,-1.6l0,0l0,0l0,0l-4.46,-4.46c-0.12,0.15 -0.25,0.3 -0.4,0.44l-5.38,5.38c-1.07,1.07 -2.48,1.6 -3.88,1.6c-1.4,0 -2.81,-0.53 -3.88,-1.6l-16.36,-16.32c-1.07,-1.07 -1.61,-2.48 -1.61,-3.88c0,-1.41 0.54,-2.81 1.61,-3.89l0,0zm64.24,-88.2l-5.38,5.38l0,0l-0.05,0.05c-0.08,0.11 -0.12,0.24 -0.12,0.37c0,0.15 0.06,0.31 0.17,0.42l0,0l47.21,47.21c0.11,0.11 0.26,0.17 0.42,0.17c0.15,0 0.31,-0.06 0.42,-0.17l5.38,-5.38l0,0l0.05,-0.05c0.08,-0.1 0.12,-0.24 0.12,-0.37c0,-0.16 -0.05,-0.31 -0.16,-0.42l0,0l0,0l-7.13,-7.13l0,0l-32.37,-32.35l-7.72,-7.72l0,0c-0.11,-0.11 -0.26,-0.17 -0.42,-0.17c-0.16,-0.01 -0.31,0.05 -0.42,0.16l0,0l0,0l0,0zm5.62,38.33c1.34,-1.34 3.52,-1.34 4.87,0c1.34,1.34 1.34,3.52 0,4.87l-23.6,23.58c-1.34,1.34 -3.52,1.34 -4.87,0c-1.34,-1.34 -1.34,-3.52 0,-4.87l23.6,-23.58l0,0zm29.18,-42.24l-5.38,5.38l0,0c-0.12,0.12 -0.18,0.27 -0.18,0.42c0,0.13 0.04,0.25 0.12,0.36l0.06,0.06l0,0l0,0l16.32,16.32l0,0l0.05,0.05c0.1,0.08 0.23,0.11 0.36,0.11c0.15,0 0.31,-0.06 0.42,-0.17l5.38,-5.38l0,0c0.12,-0.12 0.18,-0.27 0.18,-0.42c0,-0.15 -0.06,-0.31 -0.17,-0.42l0,0l0,0l-16.32,-16.31l0,0c-0.11,-0.11 -0.26,-0.17 -0.42,-0.17s-0.31,0.06 -0.42,0.17l0,0l0,0zm-8.84,1.91l5.38,-5.38l0,0c1.07,-1.07 2.48,-1.6 3.88,-1.6s2.81,0.53 3.88,1.6l0,0l16.32,16.32l0,0l0,0l0,0c1.06,1.06 1.6,2.47 1.59,3.87c0,1.41 -0.53,2.82 -1.59,3.88l0,0l-5.38,5.38c-0.14,0.14 -0.29,0.27 -0.44,0.4l4.46,4.46c1.07,1.07 1.6,2.48 1.6,3.88c0,1.41 -0.54,2.81 -1.6,3.88l-5.38,5.38l0,0l0,0l0,0c-0.14,0.14 -0.29,0.27 -0.44,0.39l3.27,3.27l0,0l0,0l0,0c1.07,1.07 1.6,2.47 1.6,3.87c0,1.33 -0.48,2.66 -1.44,3.7c-0.05,0.06 -0.1,0.12 -0.16,0.18l0,0l-5.38,5.38c-1.07,1.07 -2.48,1.6 -3.88,1.6c-1.41,0 -2.81,-0.54 -3.88,-1.6l-47.21,-47.18l0,0c-1.07,-1.07 -1.61,-2.48 -1.61,-3.88c0,-1.33 0.48,-2.66 1.44,-3.7c0.05,-0.06 0.1,-0.12 0.16,-0.18l0,0l5.38,-5.38l0,0l0,0l0,0c1.07,-1.07 2.47,-1.6 3.87,-1.6c1.41,0 2.81,0.54 3.88,1.6l0,0l3.86,3.86c0.12,-0.15 0.25,-0.3 0.4,-0.44l5.38,-5.38c1.07,-1.07 2.48,-1.61 3.88,-1.61c1.41,0 2.81,0.54 3.88,1.61l3.86,3.86c0.15,-0.15 0.28,-0.3 0.42,-0.44l0,0l0,0zm-8.56,0.05l-5.38,5.38c-0.11,0.11 -0.17,0.26 -0.17,0.42c0,0.15 0.05,0.3 0.16,0.41l0.01,0.01l32.36,32.36l0,0c0.11,0.11 0.26,0.17 0.42,0.17c0.16,0 0.31,-0.05 0.42,-0.16l0,0l0,0l5.38,-5.38c0.11,-0.11 0.17,-0.26 0.17,-0.42c0,-0.15 -0.06,-0.31 -0.17,-0.42l-8.31,-8.31l0,0l0,0l0,0l0,0l-24.05,-24.06c-0.11,-0.11 -0.27,-0.17 -0.42,-0.17c-0.16,0 -0.31,0.05 -0.42,0.17l0,0zm-66.54,67.38l0,0l32.36,32.36l0,0l0,0l0,0l0,0l0,0l0,0l0,0l7.11,7.11l0,0l0,0c0.11,0.11 0.27,0.16 0.42,0.16c0.13,0 0.26,-0.04 0.37,-0.12l0.05,-0.05l0,0l5.38,-5.38c0.11,-0.11 0.17,-0.26 0.17,-0.42c0,-0.15 -0.06,-0.31 -0.17,-0.42l-47.2,-47.18c-0.11,-0.11 -0.26,-0.17 -0.42,-0.17c-0.15,0 -0.31,0.06 -0.42,0.17l-5.38,5.38l0,0l0,0c-0.11,0.11 -0.16,0.27 -0.16,0.42c0,0.15 0.06,0.31 0.17,0.42l0,0l7.72,7.72l0,0zm28.95,35.88l-0.05,-0.05l-32.37,-32.37l0,0l-0.06,-0.06c-0.11,-0.08 -0.23,-0.12 -0.36,-0.12c-0.15,0 -0.3,0.06 -0.42,0.18l0,0l-5.38,5.38l0,0l0,0c-0.11,0.11 -0.16,0.27 -0.16,0.42c0,0.13 0.04,0.26 0.12,0.37l0.05,0.05l0,0l7.72,7.72l16.32,16.32l8.32,8.32l0,0l0,0c0.12,0.12 0.27,0.17 0.42,0.17c0.13,0 0.26,-0.04 0.37,-0.12l0.05,-0.05l0,0l5.38,-5.38l0,0c0.11,-0.11 0.16,-0.27 0.16,-0.42c0,-0.13 -0.04,-0.26 -0.11,-0.36l0,0zm-35.21,-15.02l-5.38,5.38c-0.11,0.11 -0.17,0.26 -0.17,0.42s0.06,0.31 0.17,0.42l16.32,16.32c0.11,0.11 0.26,0.17 0.42,0.17c0.15,0 0.31,-0.06 0.42,-0.17l5.38,-5.38c0.11,-0.11 0.17,-0.26 0.17,-0.42c0,-0.16 -0.06,-0.31 -0.17,-0.42l-16.33,-16.32l-0.01,-0.01c-0.11,-0.11 -0.26,-0.16 -0.41,-0.16c-0.15,0 -0.3,0.06 -0.41,0.17l0,0z"/>
  </g>
 </g>
</svg>